<?xml version="1.0" encoding="UTF-8" standalone="no"?>
<!-- Created with Inkscape (http://www.inkscape.org/) -->

<svg
   xmlns:osb="http://www.openswatchbook.org/uri/2009/osb"
   xmlns:dc="http://purl.org/dc/elements/1.1/"
   xmlns:cc="http://creativecommons.org/ns#"
   xmlns:rdf="http://www.w3.org/1999/02/22-rdf-syntax-ns#"
   xmlns:svg="http://www.w3.org/2000/svg"
   xmlns="http://www.w3.org/2000/svg"
   xmlns:xlink="http://www.w3.org/1999/xlink"
   xmlns:sodipodi="http://sodipodi.sourceforge.net/DTD/sodipodi-0.dtd"
   xmlns:inkscape="http://www.inkscape.org/namespaces/inkscape"
   width="297mm"
   height="210mm"
   viewBox="0 0 1052.3622 744.09448"
   id="svg2"
   version="1.1"
   inkscape:version="0.91 r13725"
   sodipodi:docname="Macao-logo-color.svg">
  <defs
     id="defs4">
    <linearGradient
       id="linearGradient14601"
       osb:paint="solid">
      <stop
         style="stop-color:#ffcc00;stop-opacity:1;"
         offset="0"
         id="stop14603" />
    </linearGradient>
    <linearGradient
       id="linearGradient14595"
       osb:paint="solid">
      <stop
         style="stop-color:#000000;stop-opacity:1;"
         offset="0"
         id="stop14597" />
    </linearGradient>
    <linearGradient
       id="linearGradient14589"
       osb:paint="solid">
      <stop
         style="stop-color:#000000;stop-opacity:1;"
         offset="0"
         id="stop14591" />
    </linearGradient>
    <linearGradient
       id="linearGradient14583"
       osb:paint="solid">
      <stop
         style="stop-color:#000000;stop-opacity:1;"
         offset="0"
         id="stop14585" />
    </linearGradient>
    <linearGradient
       id="linearGradient14577"
       osb:paint="solid">
      <stop
         style="stop-color:#000000;stop-opacity:1;"
         offset="0"
         id="stop14579" />
    </linearGradient>
    <linearGradient
       id="linearGradient14571"
       osb:paint="solid">
      <stop
         style="stop-color:#000000;stop-opacity:1;"
         offset="0"
         id="stop14573" />
    </linearGradient>
    <linearGradient
       id="linearGradient14565"
       osb:paint="solid">
      <stop
         style="stop-color:#000000;stop-opacity:1;"
         offset="0"
         id="stop14567" />
    </linearGradient>
    <linearGradient
       id="linearGradient14559"
       osb:paint="solid">
      <stop
         style="stop-color:#ffcc00;stop-opacity:1;"
         offset="0"
         id="stop14561" />
    </linearGradient>
    <linearGradient
       id="linearGradient14553"
       osb:paint="solid">
      <stop
         style="stop-color:#000000;stop-opacity:1;"
         offset="0"
         id="stop14555" />
    </linearGradient>
    <linearGradient
       id="linearGradient14547"
       osb:paint="solid">
      <stop
         style="stop-color:#000000;stop-opacity:1;"
         offset="0"
         id="stop14549" />
    </linearGradient>
    <linearGradient
       id="linearGradient14541"
       osb:paint="solid">
      <stop
         style="stop-color:#000000;stop-opacity:1;"
         offset="0"
         id="stop14543" />
    </linearGradient>
    <linearGradient
       id="linearGradient14362"
       osb:paint="solid">
      <stop
         style="stop-color:#ffcc00;stop-opacity:1;"
         offset="0"
         id="stop14364" />
    </linearGradient>
    <marker
       inkscape:stockid="Arrow1Send"
       orient="auto"
       refY="0.0"
       refX="0.0"
       id="Arrow1Send"
       style="overflow:visible;"
       inkscape:isstock="true">
      <path
         id="path4200"
         d="M 0.0,0.0 L 5.0,-5.0 L -12.5,0.0 L 5.0,5.0 L 0.0,0.0 z "
         style="fill-rule:evenodd;stroke:#ffcc00;stroke-width:1pt;stroke-opacity:1;fill:#ffcc00;fill-opacity:1"
         transform="scale(0.2) rotate(180) translate(6,0)" />
    </marker>
    <marker
       inkscape:stockid="TriangleOutS"
       orient="auto"
       refY="0.0"
       refX="0.0"
       id="marker11098"
       style="overflow:visible"
       inkscape:isstock="true">
      <path
         id="path11100"
         d="M 5.77,0.0 L -2.88,5.0 L -2.88,-5.0 L 5.77,0.0 z "
         style="fill-rule:evenodd;stroke:#000000;stroke-width:1pt;stroke-opacity:1;fill:#000000;fill-opacity:1"
         transform="scale(0.2)" />
    </marker>
    <marker
       inkscape:stockid="Arrow2Send"
       orient="auto"
       refY="0.0"
       refX="0.0"
       id="marker10766"
       style="overflow:visible;"
       inkscape:isstock="true">
      <path
         id="path10768"
         style="fill-rule:evenodd;stroke-width:0.625;stroke-linejoin:round;stroke:#ffcc00;stroke-opacity:1;fill:#ffcc00;fill-opacity:1"
         d="M 8.7185878,4.0337352 L -2.2072895,0.016013256 L 8.7185884,-4.0017078 C 6.9730900,-1.6296469 6.9831476,1.6157441 8.7185878,4.0337352 z "
         transform="scale(0.3) rotate(180) translate(-2.3,0)" />
    </marker>
    <marker
       inkscape:stockid="TriangleOutS"
       orient="auto"
       refY="0.0"
       refX="0.0"
       id="TriangleOutS"
       style="overflow:visible"
       inkscape:isstock="true">
      <path
         id="path4333"
         d="M 5.77,0.0 L -2.88,5.0 L -2.88,-5.0 L 5.77,0.0 z "
         style="fill-rule:evenodd;stroke:#000000;stroke-width:1pt;stroke-opacity:1;fill:#000000;fill-opacity:1"
         transform="scale(0.2)" />
    </marker>
    <marker
       inkscape:stockid="TriangleOutM"
       orient="auto"
       refY="0.0"
       refX="0.0"
       id="TriangleOutM"
       style="overflow:visible"
       inkscape:isstock="true">
      <path
         id="path4330"
         d="M 5.77,0.0 L -2.88,5.0 L -2.88,-5.0 L 5.77,0.0 z "
         style="fill-rule:evenodd;stroke:#000000;stroke-width:1pt;stroke-opacity:1;fill:#000000;fill-opacity:1"
         transform="scale(0.4)" />
    </marker>
    <marker
       inkscape:stockid="Arrow2Send"
       orient="auto"
       refY="0.0"
       refX="0.0"
       id="Arrow2Send"
       style="overflow:visible;"
       inkscape:isstock="true">
      <path
         id="path4218"
         style="fill-rule:evenodd;stroke-width:0.625;stroke-linejoin:round;stroke:#ffcc00;stroke-opacity:1;fill:#ffcc00;fill-opacity:1"
         d="M 8.7185878,4.0337352 L -2.2072895,0.016013256 L 8.7185884,-4.0017078 C 6.9730900,-1.6296469 6.9831476,1.6157441 8.7185878,4.0337352 z "
         transform="scale(0.3) rotate(180) translate(-2.3,0)" />
    </marker>
    <marker
       inkscape:stockid="Arrow2Mend"
       orient="auto"
       refY="0.0"
       refX="0.0"
       id="marker4469"
       style="overflow:visible;"
       inkscape:isstock="true">
      <path
         id="path4471"
         style="fill-rule:evenodd;stroke-width:0.625;stroke-linejoin:round;stroke:#000000;stroke-opacity:1;fill:#000000;fill-opacity:1"
         d="M 8.7185878,4.0337352 L -2.2072895,0.016013256 L 8.7185884,-4.0017078 C 6.9730900,-1.6296469 6.9831476,1.6157441 8.7185878,4.0337352 z "
         transform="scale(0.6) rotate(180) translate(0,0)" />
    </marker>
    <marker
       inkscape:stockid="Arrow2Mend"
       orient="auto"
       refY="0.0"
       refX="0.0"
       id="Arrow2Mend"
       style="overflow:visible;"
       inkscape:isstock="true">
      <path
         id="path4212"
         style="fill-rule:evenodd;stroke-width:0.625;stroke-linejoin:round;stroke:#000000;stroke-opacity:1;fill:#000000;fill-opacity:1"
         d="M 8.7185878,4.0337352 L -2.2072895,0.016013256 L 8.7185884,-4.0017078 C 6.9730900,-1.6296469 6.9831476,1.6157441 8.7185878,4.0337352 z "
         transform="scale(0.6) rotate(180) translate(0,0)" />
    </marker>
    <marker
       inkscape:stockid="Arrow1Mstart"
       orient="auto"
       refY="0.0"
       refX="0.0"
       id="Arrow1Mstart"
       style="overflow:visible"
       inkscape:isstock="true">
      <path
         id="path4191"
         d="M 0.0,0.0 L 5.0,-5.0 L -12.5,0.0 L 5.0,5.0 L 0.0,0.0 z "
         style="fill-rule:evenodd;stroke:#000000;stroke-width:1pt;stroke-opacity:1;fill:#000000;fill-opacity:1"
         transform="scale(0.4) translate(10,0)" />
    </marker>
    <marker
       inkscape:stockid="Arrow2Lend"
       orient="auto"
       refY="0.0"
       refX="0.0"
       id="Arrow2Lend"
       style="overflow:visible;"
       inkscape:isstock="true">
      <path
         id="path4874"
         style="fill-rule:evenodd;stroke-width:0.625;stroke-linejoin:round;stroke:#000000;stroke-opacity:1;fill:#000000;fill-opacity:1"
         d="M 8.7185878,4.0337352 L -2.2072895,0.016013256 L 8.7185884,-4.0017078 C 6.9730900,-1.6296469 6.9831476,1.6157441 8.7185878,4.0337352 z "
         transform="scale(1.1) rotate(180) translate(1,0)" />
    </marker>
    <marker
       inkscape:stockid="Arrow2Sstart"
       orient="auto"
       refY="0.0"
       refX="0.0"
       id="Arrow2Sstart"
       style="overflow:visible"
       inkscape:isstock="true">
      <path
         id="path4883"
         style="fill-rule:evenodd;stroke-width:0.625;stroke-linejoin:round;stroke:#000000;stroke-opacity:1;fill:#000000;fill-opacity:1"
         d="M 8.7185878,4.0337352 L -2.2072895,0.016013256 L 8.7185884,-4.0017078 C 6.9730900,-1.6296469 6.9831476,1.6157441 8.7185878,4.0337352 z "
         transform="scale(0.3) translate(-2.3,0)" />
    </marker>
    <marker
       inkscape:stockid="Arrow1Lend"
       orient="auto"
       refY="0.0"
       refX="0.0"
       id="Arrow1Lend"
       style="overflow:visible;"
       inkscape:isstock="true">
      <path
         id="path4856"
         d="M 0.0,0.0 L 5.0,-5.0 L -12.5,0.0 L 5.0,5.0 L 0.0,0.0 z "
         style="fill-rule:evenodd;stroke:#000000;stroke-width:1pt;stroke-opacity:1;fill:#000000;fill-opacity:1"
         transform="scale(0.8) rotate(180) translate(12.5,0)" />
    </marker>
    <marker
       inkscape:stockid="Arrow1Lstart"
       orient="auto"
       refY="0.0"
       refX="0.0"
       id="Arrow1Lstart"
       style="overflow:visible"
       inkscape:isstock="true">
      <path
         id="path4853"
         d="M 0.0,0.0 L 5.0,-5.0 L -12.5,0.0 L 5.0,5.0 L 0.0,0.0 z "
         style="fill-rule:evenodd;stroke:#000000;stroke-width:1pt;stroke-opacity:1;fill:#000000;fill-opacity:1"
         transform="scale(0.8) translate(12.5,0)" />
    </marker>
    <marker
       inkscape:stockid="Arrow2Lend"
       orient="auto"
       refY="0"
       refX="0"
       id="Arrow2Lend-9"
       style="overflow:visible"
       inkscape:isstock="true">
      <path
         inkscape:connector-curvature="0"
         id="path4874-9"
         style="fill:#000000;fill-opacity:1;fill-rule:evenodd;stroke:#000000;stroke-width:0.625;stroke-linejoin:round;stroke-opacity:1"
         d="M 8.7185878,4.0337352 -2.2072895,0.01601326 8.7185884,-4.0017078 c -1.7454984,2.3720609 -1.7354408,5.6174519 -6e-7,8.035443 z"
         transform="matrix(-1.1,0,0,-1.1,-1.1,0)" />
    </marker>
    <marker
       inkscape:stockid="Arrow2Lend"
       orient="auto"
       refY="0"
       refX="0"
       id="Arrow2Lend-9-9"
       style="overflow:visible"
       inkscape:isstock="true">
      <path
         inkscape:connector-curvature="0"
         id="path4874-9-0"
         style="fill:#000000;fill-opacity:1;fill-rule:evenodd;stroke:#000000;stroke-width:0.625;stroke-linejoin:round;stroke-opacity:1"
         d="M 8.7185878,4.0337352 -2.2072895,0.01601326 8.7185884,-4.0017078 c -1.7454984,2.3720609 -1.7354408,5.6174519 -6e-7,8.035443 z"
         transform="matrix(-1.1,0,0,-1.1,-1.1,0)" />
    </marker>
    <marker
       inkscape:stockid="Arrow2Mend"
       orient="auto"
       refY="0"
       refX="0"
       id="Arrow2Mend-9"
       style="overflow:visible"
       inkscape:isstock="true">
      <path
         inkscape:connector-curvature="0"
         id="path4212-1"
         style="fill:#000000;fill-opacity:1;fill-rule:evenodd;stroke:#000000;stroke-width:0.625;stroke-linejoin:round;stroke-opacity:1"
         d="M 8.7185878,4.0337352 -2.2072895,0.01601326 8.7185884,-4.0017078 c -1.7454984,2.3720609 -1.7354408,5.6174519 -6e-7,8.035443 z"
         transform="scale(-0.6,-0.6)" />
    </marker>
    <marker
       inkscape:stockid="Arrow2Mend"
       orient="auto"
       refY="0"
       refX="0"
       id="marker4469-5"
       style="overflow:visible"
       inkscape:isstock="true">
      <path
         inkscape:connector-curvature="0"
         id="path4471-1"
         style="fill:#000000;fill-opacity:1;fill-rule:evenodd;stroke:#000000;stroke-width:0.625;stroke-linejoin:round;stroke-opacity:1"
         d="M 8.7185878,4.0337352 -2.2072895,0.01601326 8.7185884,-4.0017078 c -1.7454984,2.3720609 -1.7354408,5.6174519 -6e-7,8.035443 z"
         transform="scale(-0.6,-0.6)" />
    </marker>
    <marker
       inkscape:stockid="Arrow2Mend"
       orient="auto"
       refY="0"
       refX="0"
       id="marker4469-5-2"
       style="overflow:visible"
       inkscape:isstock="true">
      <path
         inkscape:connector-curvature="0"
         id="path4471-1-5"
         style="fill:#000000;fill-opacity:1;fill-rule:evenodd;stroke:#000000;stroke-width:0.625;stroke-linejoin:round;stroke-opacity:1"
         d="M 8.7185878,4.0337352 -2.2072895,0.01601326 8.7185884,-4.0017078 c -1.7454984,2.3720609 -1.7354408,5.6174519 -6e-7,8.035443 z"
         transform="scale(-0.6,-0.6)" />
    </marker>
    <linearGradient
       inkscape:collect="always"
       xlink:href="#linearGradient14362"
       id="linearGradient14368"
       gradientUnits="userSpaceOnUse"
       x1="339.64819"
       y1="450.07415"
       x2="405.9583"
       y2="450.07415" />
    <linearGradient
       inkscape:collect="always"
       xlink:href="#linearGradient14362"
       id="linearGradient14370"
       gradientUnits="userSpaceOnUse"
       x1="339.64819"
       y1="450.07415"
       x2="405.9583"
       y2="450.07415" />
    <linearGradient
       inkscape:collect="always"
       xlink:href="#linearGradient14362"
       id="linearGradient14372"
       gradientUnits="userSpaceOnUse"
       x1="339.64819"
       y1="450.07415"
       x2="405.9583"
       y2="450.07415" />
    <linearGradient
       inkscape:collect="always"
       xlink:href="#linearGradient14601"
       id="linearGradient14605"
       x1="421.98822"
       y1="624.60708"
       x2="461.91992"
       y2="624.60708"
       gradientUnits="userSpaceOnUse" />
    <linearGradient
       inkscape:collect="always"
       xlink:href="#linearGradient14601"
       id="linearGradient14607"
       x1="352.42509"
       y1="625.10161"
       x2="392.35679"
       y2="625.10161"
       gradientUnits="userSpaceOnUse" />
    <linearGradient
       inkscape:collect="always"
       xlink:href="#linearGradient14601"
       id="linearGradient14609"
       x1="390.01001"
       y1="520.25953"
       x2="429.9417"
       y2="520.25953"
       gradientUnits="userSpaceOnUse" />
    <linearGradient
       inkscape:collect="always"
       xlink:href="#linearGradient14601"
       id="linearGradient14611"
       x1="282.4402"
       y1="625.05899"
       x2="322.37203"
       y2="625.05899"
       gradientUnits="userSpaceOnUse" />
    <linearGradient
       inkscape:collect="always"
       xlink:href="#linearGradient14601"
       id="linearGradient14613"
       x1="313.87952"
       y1="520.96247"
       x2="353.81136"
       y2="520.96247"
       gradientUnits="userSpaceOnUse" />
    <linearGradient
       inkscape:collect="always"
       xlink:href="#linearGradient14601"
       id="linearGradient14615"
       x1="377.8826"
       y1="572.7523"
       x2="404.67464"
       y2="572.7523"
       gradientUnits="userSpaceOnUse" />
    <linearGradient
       inkscape:collect="always"
       xlink:href="#linearGradient14601"
       id="linearGradient14617"
       x1="414.90166"
       y1="572.49928"
       x2="441.6937"
       y2="572.49928"
       gradientUnits="userSpaceOnUse" />
    <linearGradient
       inkscape:collect="always"
       xlink:href="#linearGradient14601"
       id="linearGradient14619"
       x1="339.41859"
       y1="572.82523"
       x2="367.56372"
       y2="572.82523"
       gradientUnits="userSpaceOnUse" />
    <linearGradient
       inkscape:collect="always"
       xlink:href="#linearGradient14601"
       id="linearGradient14621"
       x1="302.73137"
       y1="571.13763"
       x2="329.85517"
       y2="571.13763"
       gradientUnits="userSpaceOnUse" />
    <linearGradient
       inkscape:collect="always"
       xlink:href="#linearGradient14559"
       id="linearGradient14629"
       gradientUnits="userSpaceOnUse"
       x1="281.78171"
       y1="731.8588"
       x2="321.71355"
       y2="731.8588" />
    <linearGradient
       inkscape:collect="always"
       xlink:href="#linearGradient14559"
       id="linearGradient14631"
       gradientUnits="userSpaceOnUse"
       x1="281.78171"
       y1="731.8588"
       x2="321.71355"
       y2="731.8588" />
    <linearGradient
       inkscape:collect="always"
       xlink:href="#linearGradient14559"
       id="linearGradient14633"
       gradientUnits="userSpaceOnUse"
       x1="281.78171"
       y1="731.8588"
       x2="321.71355"
       y2="731.8588" />
    <filter
       inkscape:collect="always"
       style="color-interpolation-filters:sRGB"
       id="filter14776"
       x="-0.036353823"
       width="1.0727076"
       y="-0.0071860121"
       height="1.014372">
      <feGaussianBlur
         inkscape:collect="always"
         stdDeviation="0.53335147"
         id="feGaussianBlur14778" />
    </filter>
    <filter
       inkscape:collect="always"
       style="color-interpolation-filters:sRGB"
       id="filter14792"
       x="-0.016230298"
       width="1.0324606"
       y="-0.0095189591"
       height="1.0190379">
      <feGaussianBlur
         inkscape:collect="always"
         stdDeviation="0.41514275"
         id="feGaussianBlur14794" />
    </filter>
  </defs>
  <sodipodi:namedview
     id="base"
     pagecolor="#ffffff"
     bordercolor="#666666"
     borderopacity="1.0"
     inkscape:pageopacity="0.0"
     inkscape:pageshadow="2"
     inkscape:zoom="1.383938"
     inkscape:cx="465.94564"
     inkscape:cy="472.23214"
     inkscape:document-units="px"
     inkscape:current-layer="layer1"
     showgrid="false"
     inkscape:window-width="1920"
     inkscape:window-height="1017"
     inkscape:window-x="1912"
     inkscape:window-y="-8"
     inkscape:window-maximized="1"
     showguides="true"
     inkscape:guide-bbox="true">
    <inkscape:grid
       type="xygrid"
       id="grid4800" />
  </sodipodi:namedview>
  <metadata
     id="metadata7">
    <rdf:RDF>
      <cc:Work
         rdf:about="">
        <dc:format>image/svg+xml</dc:format>
        <dc:type
           rdf:resource="http://purl.org/dc/dcmitype/StillImage" />
        <dc:title></dc:title>
      </cc:Work>
    </rdf:RDF>
  </metadata>
  <g
     inkscape:label="Layer 1"
     inkscape:groupmode="layer"
     id="layer1"
     transform="translate(0,-308.26772)">
    <path
       style="fill:none;fill-opacity:1;fill-rule:evenodd;stroke:url(#linearGradient14621);stroke-width:5.20921421;stroke-linecap:butt;stroke-linejoin:miter;stroke-miterlimit:4;stroke-dasharray:none;stroke-dashoffset:0;stroke-opacity:1;marker-end:url(#Arrow2Send)"
       d="m 327.40401,537.83301 -21.69102,60.36443"
       id="path4847-2"
       inkscape:connector-curvature="0"
       sodipodi:nodetypes="cc" />
    <path
       style="fill:none;fill-rule:evenodd;stroke:url(#linearGradient14619);stroke-width:4.721;stroke-linecap:butt;stroke-linejoin:miter;stroke-miterlimit:4;stroke-dasharray:none;stroke-opacity:1"
       d="m 341.65796,537.32565 c 23.66639,70.99916 23.66639,70.99916 23.66639,70.99916"
       id="path5447-9"
       inkscape:connector-curvature="0" />
    <path
       style="fill:none;fill-rule:evenodd;stroke:url(#linearGradient14617);stroke-width:4.721;stroke-linecap:butt;stroke-linejoin:miter;stroke-miterlimit:4;stroke-dasharray:none;stroke-opacity:1"
       d="m 417.1508,537.50631 22.29376,69.98595"
       id="path5447-6-5"
       inkscape:connector-curvature="0"
       sodipodi:nodetypes="cc" />
    <path
       style="fill:none;fill-rule:evenodd;stroke:url(#linearGradient14615);stroke-width:4.721;stroke-linecap:butt;stroke-linejoin:miter;stroke-miterlimit:4;stroke-dasharray:none;stroke-opacity:1"
       d="m 402.4255,537.75933 -22.29376,69.98594"
       id="path5447-6-2-7"
       inkscape:connector-curvature="0"
       sodipodi:nodetypes="cc" />
    <g
       style="font-style:normal;font-variant:normal;font-weight:300;font-stretch:normal;font-size:215.49674988px;line-height:125%;font-family:Rajdhani;-inkscape-font-specification:'Rajdhani Light';letter-spacing:0px;word-spacing:0px;fill:#ffcc00;fill-opacity:1;stroke:none;stroke-width:1px;stroke-linecap:butt;stroke-linejoin:miter;stroke-opacity:1"
       id="text6788-6">
      <path
         inkscape:connector-curvature="0"
         d="m 518.01875,642.73877 -15.94676,0 q -13.1453,0 -21.11868,-7.97338 -7.75788,-7.97338 -7.75788,-21.33418 l 0,-51.28822 q 0,-13.3608 7.75788,-21.33418 7.97338,-7.97338 21.11868,-7.97338 l 44.39233,0 q 1.72398,0 1.72398,1.93947 l 0,106.0244 q 0,1.93947 -1.72398,1.93947 l -3.01695,0 q -1.72397,0 -1.72397,-1.93947 l 0,-9.26636 -0.86199,0 q -6.03391,11.20583 -22.84266,11.20583 z m 23.70465,-28.44557 0,-73.69989 q 0,-1.72397 -1.93948,-1.72397 l -37.71193,0 q -10.77483,0 -16.59325,6.2494 -5.81841,6.24941 -5.81841,17.23974 l 0,50.85723 q 0,10.99034 5.81841,17.23974 5.81842,6.24941 16.59325,6.24941 l 15.51577,0 q 10.77484,0 17.45524,-5.81841 6.6804,-5.81841 6.6804,-16.59325 z"
         style="font-style:normal;font-variant:normal;font-weight:300;font-stretch:normal;font-size:215.49674988px;font-family:Rajdhani;-inkscape-font-specification:'Rajdhani Light';fill:#ffcc00"
         id="path6914" />
      <path
         inkscape:connector-curvature="0"
         d="m 641.93949,638.42883 0,2.58597 q 0,1.72397 -1.93947,1.72397 l -30.60054,0 q -13.1453,0 -21.11868,-7.97338 -7.75789,-7.97338 -7.75789,-21.33418 l 0,-51.28822 q 0,-13.3608 7.75789,-21.33418 7.97338,-7.97338 21.11868,-7.97338 l 30.60054,0 q 1.93947,0 1.93947,1.72397 l 0,2.58596 q 0,1.72398 -1.93947,1.72398 l -30.60054,0 q -10.77484,0 -16.59325,6.2494 -5.81841,6.24941 -5.81841,17.23974 l 0,50.85723 q 0,10.99034 5.81841,17.23974 5.81841,6.24941 16.59325,6.24941 l 30.60054,0 q 1.93947,0 1.93947,1.72397 z"
         style="font-style:normal;font-variant:normal;font-weight:300;font-stretch:normal;font-size:215.49674988px;font-family:Rajdhani;-inkscape-font-specification:'Rajdhani Light';fill:#ffcc00"
         id="path6916" />
      <path
         inkscape:connector-curvature="0"
         d="m 709.52466,642.73877 -15.94676,0 q -13.1453,0 -21.11868,-7.97338 -7.75789,-7.97338 -7.75789,-21.33418 l 0,-51.28822 q 0,-13.3608 7.75789,-21.33418 7.97338,-7.97338 21.11868,-7.97338 l 44.39233,0 q 1.72397,0 1.72397,1.93947 l 0,106.0244 q 0,1.93947 -1.72397,1.93947 l -3.01696,0 q -1.72397,0 -1.72397,-1.93947 l 0,-9.26636 -0.86199,0 q -6.03391,11.20583 -22.84265,11.20583 z m 23.70464,-28.44557 0,-73.69989 q 0,-1.72397 -1.93947,-1.72397 l -37.71193,0 q -10.77484,0 -16.59325,6.2494 -5.81841,6.24941 -5.81841,17.23974 l 0,50.85723 q 0,10.99034 5.81841,17.23974 5.81841,6.24941 16.59325,6.24941 l 15.51576,0 q 10.77484,0 17.45524,-5.81841 6.6804,-5.81841 6.6804,-16.59325 z"
         style="font-style:normal;font-variant:normal;font-weight:300;font-stretch:normal;font-size:215.49674988px;font-family:Rajdhani;-inkscape-font-specification:'Rajdhani Light';fill:#ffcc00"
         id="path6918" />
      <path
         inkscape:connector-curvature="0"
         d="m 819.22259,642.73877 -18.31722,0 q -13.1453,0 -21.11868,-7.97338 -7.75789,-7.97338 -7.75789,-21.33418 l 0,-51.28822 q 0,-13.3608 7.75789,-21.33418 7.97338,-7.97338 21.11868,-7.97338 l 18.31722,0 q 13.1453,0 20.90319,7.97338 7.97338,7.97338 7.97338,21.33418 l 0,51.28822 q 0,13.3608 -7.97338,21.33418 -7.75789,7.97338 -20.90319,7.97338 z m -18.31722,-6.03391 18.31722,0 q 10.77484,0 16.59325,-6.24941 5.81841,-6.2494 5.81841,-17.23974 l 0,-50.85723 q 0,-10.99033 -5.81841,-17.23974 -5.81841,-6.2494 -16.59325,-6.2494 l -18.31722,0 q -10.77484,0 -16.59325,6.2494 -5.81841,6.24941 -5.81841,17.23974 l 0,50.85723 q 0,10.99034 5.81841,17.23974 5.81841,6.24941 16.59325,6.24941 z"
         style="font-style:normal;font-variant:normal;font-weight:300;font-stretch:normal;font-size:215.49674988px;font-family:Rajdhani;-inkscape-font-specification:'Rajdhani Light';fill:#ffcc00"
         id="path6920" />
    </g>
    <path
       inkscape:connector-curvature="0"
       style="fill:none;fill-opacity:1;stroke:url(#linearGradient14613);stroke-width:4.721138;stroke-miterlimit:4;stroke-dasharray:none;stroke-opacity:1"
       d="m 329.96629,503.65553 7.75829,0 c 7.60432,0 13.72621,6.12189 13.72621,13.7262 l 0,7.16147 c 0,7.60432 -6.12189,13.72621 -13.72621,13.72621 l -7.75829,0 c -7.60432,0 -13.7262,-6.12189 -13.7262,-13.72621 l 0,-7.16147 c 0,-7.60431 6.12188,-13.7262 13.7262,-13.7262 z"
       id="rect6821" />
    <path
       inkscape:connector-curvature="0"
       style="fill:none;fill-opacity:1;stroke:url(#linearGradient14611);stroke-width:4.721138;stroke-miterlimit:4;stroke-dasharray:none;stroke-opacity:1"
       d="m 298.52697,607.75205 7.75829,0 c 7.60432,0 13.7262,6.12189 13.7262,13.7262 l 0,7.16147 c 0,7.60432 -6.12188,13.7262 -13.7262,13.7262 l -7.75829,0 c -7.60432,0 -13.7262,-6.12188 -13.7262,-13.7262 l 0,-7.16147 c 0,-7.60431 6.12188,-13.7262 13.7262,-13.7262 z"
       id="rect6821-1" />
    <g
       id="g14650"
       style="opacity:0.15;filter:url(#filter14776)">
      <path
         sodipodi:nodetypes="cc"
         inkscape:connector-curvature="0"
         id="path4847-8-6"
         d="m 302.02576,641.49863 0.22404,62.36531"
         style="opacity:1;fill:none;fill-opacity:1;fill-rule:evenodd;stroke:url(#linearGradient14629);stroke-width:5.20921421;stroke-linecap:butt;stroke-linejoin:miter;stroke-miterlimit:4;stroke-dasharray:none;stroke-opacity:1;marker-end:url(#Arrow1Send)" />
      <path
         sodipodi:nodetypes="cssc"
         inkscape:connector-curvature="0"
         id="path4847-8-9-3"
         d="m 302.75557,748.39102 c 19.39293,15.77464 -0.59355,13.65875 -6.78748,26.28006 -3.85644,7.85825 30.11427,19.38839 11.96285,29.23129 -21.28203,11.54048 -9.44883,15.48487 -5.48077,15.72615"
         style="opacity:1;fill:none;fill-opacity:1;fill-rule:evenodd;stroke:url(#linearGradient14631);stroke-width:5.20921421;stroke-linecap:butt;stroke-linejoin:miter;stroke-miterlimit:4;stroke-dasharray:none;stroke-opacity:1" />
      <path
         sodipodi:nodetypes="sssssssss"
         id="rect6821-6"
         d="m 297.86848,713.7442 7.75829,0 c 7.60432,0 13.72621,6.12189 13.72621,13.7262 l 0,7.16147 c 0,7.60432 -6.12189,13.7262 -13.72621,13.7262 l -7.75829,0 c -7.60431,0 -13.7262,-6.12188 -13.7262,-13.7262 l 0,-7.16147 c 0,-7.60431 6.12189,-13.7262 13.7262,-13.7262 z"
         style="opacity:1;fill:none;fill-opacity:1;stroke:url(#linearGradient14633);stroke-width:4.721138;stroke-miterlimit:4;stroke-dasharray:none;stroke-opacity:1"
         inkscape:connector-curvature="0" />
    </g>
    <path
       inkscape:connector-curvature="0"
       style="fill:none;fill-opacity:1;stroke:url(#linearGradient14609);stroke-width:4.721;stroke-miterlimit:4;stroke-dasharray:none;stroke-opacity:1"
       d="m 406.09671,502.95259 7.75829,0 c 7.60432,0 13.7262,6.12189 13.7262,13.72621 l 0,7.16147 c 0,7.60432 -6.12188,13.7262 -13.7262,13.7262 l -7.75829,0 c -7.60431,0 -13.7262,-6.12188 -13.7262,-13.7262 l 0,-7.16147 c 0,-7.60432 6.12189,-13.72621 13.7262,-13.72621 z"
       id="rect6821-66" />
    <path
       inkscape:connector-curvature="0"
       style="fill:none;fill-opacity:1;stroke:url(#linearGradient14607);stroke-width:4.721;stroke-miterlimit:4;stroke-dasharray:none;stroke-opacity:1"
       d="m 368.51179,607.79467 7.75829,0 c 7.60432,0 13.72621,6.12189 13.72621,13.7262 l 0,7.16147 c 0,7.60433 -6.12189,13.72621 -13.72621,13.72621 l -7.75829,0 c -7.60432,0 -13.7262,-6.12188 -13.7262,-13.72621 l 0,-7.16147 c 0,-7.60431 6.12188,-13.7262 13.7262,-13.7262 z"
       id="rect6821-66-7" />
    <path
       inkscape:connector-curvature="0"
       style="fill:none;fill-opacity:1;stroke:url(#linearGradient14605);stroke-width:4.721;stroke-miterlimit:4;stroke-dasharray:none;stroke-opacity:1"
       d="m 438.07493,607.30014 7.75828,0 c 7.60432,0 13.72621,6.12188 13.72621,13.7262 l 0,7.16147 c 0,7.60432 -6.12189,13.72621 -13.72621,13.72621 l -7.75828,0 c -7.60432,0 -13.72621,-6.12189 -13.72621,-13.72621 l 0,-7.16147 c 0,-7.60432 6.12189,-13.7262 13.72621,-13.7262 z"
       id="rect6821-66-6" />
    <g
       id="g14659"
       style="opacity:0.15;filter:url(#filter14792)">
      <path
         sodipodi:nodetypes="cc"
         inkscape:connector-curvature="0"
         id="path4847-2-0"
         d="m 365.79858,432.72401 -23.46747,61.94594"
         style="opacity:1;fill:none;fill-opacity:1;fill-rule:evenodd;stroke:url(#linearGradient14368);stroke-width:4.72100019;stroke-linecap:butt;stroke-linejoin:miter;stroke-miterlimit:4;stroke-dasharray:none;stroke-opacity:1;marker-end:url(#marker10766)" />
      <path
         inkscape:connector-curvature="0"
         id="path5447-9-4"
         d="m 380.05254,432.21665 c 23.66639,70.99916 23.66639,70.99916 23.66639,70.99916"
         style="opacity:1;fill:none;fill-rule:evenodd;stroke:url(#linearGradient14370);stroke-width:4.72100019;stroke-linecap:butt;stroke-linejoin:miter;stroke-miterlimit:4;stroke-dasharray:none;stroke-opacity:1" />
      <path
         id="rect6821-11"
         d="m 368.36087,398.54653 7.75829,0 c 7.60431,0 13.7262,6.12189 13.7262,13.72621 l 0,7.16147 c 0,7.60431 -6.12189,13.7262 -13.7262,13.7262 l -7.75829,0 c -7.60432,0 -13.72621,-6.12189 -13.72621,-13.7262 l 0,-7.16147 c 0,-7.60432 6.12189,-13.72621 13.72621,-13.72621 z"
         style="opacity:1;fill:none;fill-opacity:1;stroke:url(#linearGradient14372);stroke-width:4.72100019;stroke-miterlimit:4;stroke-dasharray:none;stroke-opacity:1"
         inkscape:connector-curvature="0" />
    </g>
  </g>
</svg>
